<svg width="131" height="110" viewBox="0 0 131 110" fill="none" xmlns="http://www.w3.org/2000/svg">
<g id="undraw_message_sent_re_q2kl 1" clip-path="url(#clip0_40_1219)">
<path id="Vector" d="M6.77275 37.4847L0.504471 34.0713C0.419919 30.4193 1.25871 26.8026 2.94801 23.5352C4.39319 29.8768 11.9987 32.894 15.5078 38.431C16.5885 40.1661 17.2516 42.1141 17.4478 44.1306C17.644 46.1471 17.3684 48.1804 16.6413 50.0799L17.0536 54.9968C13.8139 54.0587 10.8231 52.4527 8.28727 50.2894C5.75141 48.1262 3.73077 45.4571 2.36456 42.4662C1.61532 40.7809 1.08857 39.0111 0.796742 37.1986C3.71928 37.4993 6.77275 37.4847 6.77275 37.4847Z" fill="#F2F2F2"/>
<path id="Vector_2" d="M119.455 99.5832L119.648 95.4048C121.651 94.3693 123.886 93.8223 126.158 93.8114C123.031 96.283 123.422 101.047 121.302 104.371C120.633 105.403 119.732 106.276 118.666 106.925C117.6 107.575 116.397 107.984 115.145 108.122L112.529 109.671C112.17 107.736 112.249 105.749 112.761 103.846C113.273 101.943 114.205 100.17 115.494 98.6492C116.226 97.8029 117.065 97.0491 117.991 96.4056C118.618 98.0032 119.455 99.5832 119.455 99.5832Z" fill="#E6E6E6"/>
<path id="Vector_3" d="M112.713 107.521L110.344 107.521L109.217 98.6851L112.714 98.6852L112.713 107.521Z" fill="#FFB6B6"/>
<path id="Vector_4" d="M113.318 109.742L105.678 109.741V109.648C105.678 108.885 105.991 108.154 106.549 107.615C107.106 107.076 107.863 106.773 108.651 106.773H108.651L110.047 105.749L112.651 106.773L113.318 106.773L113.318 109.742Z" fill="#2F2E41"/>
<path id="Vector_5" d="M101.705 107.521L99.336 107.521L98.2089 98.6851L101.706 98.6852L101.705 107.521Z" fill="#FFB6B6"/>
<path id="Vector_6" d="M102.31 109.742L94.6698 109.741V109.648C94.6699 108.885 94.9832 108.154 95.5408 107.615C96.0985 107.076 96.8548 106.773 97.6435 106.773H97.6437L99.0392 105.749L101.643 106.773L102.31 106.773L102.31 109.742Z" fill="#2F2E41"/>
<path id="Vector_7" d="M100.68 59.2151L116.091 59.5876C119.018 61.1246 119.063 64.4513 118.104 68.4011C118.104 68.4011 118.428 70.7487 117.78 71.3747C117.133 72.0007 116.809 72.0007 117.133 73.0963C117.456 74.1918 115.746 75.9812 115.953 76.182C116.161 76.3829 116.647 77.4785 116.647 77.4785L115.028 86.3993C115.028 86.3993 113.895 101.894 113.571 102.207C113.247 102.52 112.924 102.207 113.247 102.989C113.571 103.772 113.895 103.459 113.571 103.772C113.284 104.071 113.014 104.384 112.762 104.711H108.848C108.848 104.711 108.553 103.146 108.553 102.989C108.553 102.833 108.229 101.894 108.229 101.737C108.229 101.581 108.515 101.304 108.515 101.304C108.614 100.986 108.681 100.659 108.715 100.328C108.715 100.015 109.686 87.9644 109.686 87.9644L107.744 72.3137L103.049 87.6514C103.049 87.6514 103.049 101.111 102.725 101.424C102.402 101.737 102.402 101.581 102.563 102.207C102.725 102.833 103.373 102.676 102.887 103.146C102.402 103.615 102.24 102.833 102.402 103.615L102.563 104.398L97.707 104.465C97.707 104.465 97.0595 103.146 97.3833 102.676C97.7071 102.207 97.6876 102.335 97.2926 101.566C96.8977 100.798 96.7358 100.641 96.8976 100.485C97.0595 100.328 97.0595 99.496 97.0595 99.496L97.8689 84.5213C97.8689 84.5213 98.0308 68.7141 98.0308 68.2445C98.043 68.003 97.997 67.7619 97.8963 67.5405V66.9031L98.5164 64.6449L100.68 59.2151Z" fill="#69687F"/>
<path id="Vector_8" d="M109.938 28.2325C112.582 28.2325 114.726 26.1598 114.726 23.6029C114.726 21.0461 112.582 18.9734 109.938 18.9734C107.293 18.9734 105.149 21.0461 105.149 23.6029C105.149 26.1598 107.293 28.2325 109.938 28.2325Z" fill="#FFB6B6"/>
<path id="Vector_9" d="M107.544 31.2923C106.512 31.8853 105.895 32.9747 105.541 34.0834C104.885 36.1358 104.49 38.2579 104.365 40.4027L103.991 46.8238L99.3568 60.4961C103.373 63.7816 118.469 61.2428 118.469 61.2428C118.469 61.2428 118.932 61.0934 118.469 60.6454C118.006 60.1974 117.554 60.5943 118.018 60.1463C118.481 59.6983 118.162 60.1974 118.007 59.7494C117.853 59.3013 118.007 59.6 118.162 59.4507C118.316 59.3013 116.966 57.9573 116.966 57.9573L118.202 50.1092L119.746 34.2791C117.893 32.039 114.165 30.7185 114.165 30.7185L113.202 29.0422L108.386 29.4147L107.544 31.2923Z" fill="#38B12B"/>
<path id="Vector_10" d="M106.887 20.886C107.072 20.8874 107.257 20.9108 107.436 20.9556C107.79 21.0378 108.149 21.0961 108.511 21.1299C109.619 21.2307 110.661 21.6878 111.469 22.4281C112.278 23.1684 112.806 24.1492 112.97 25.214C113.248 24.9794 113.881 24.548 114.4 24.949C114.408 24.9553 114.413 24.9586 114.431 24.9502C114.776 24.7922 115.388 22.8465 115.406 21.1334C115.416 20.2242 115.268 19.0631 114.507 18.6954L114.467 18.6761L114.457 18.634C114.406 18.4294 113.838 18.0803 112.851 17.8086C111.058 17.3147 108.385 16.3528 106.88 17.7685C106.766 18.2457 106.395 19.2671 106.021 19.3829C105.606 19.511 105.248 19.6216 105.192 20.1132C105.145 20.8129 105.148 21.5148 105.202 22.214C105.343 21.7862 105.618 21.4117 105.991 21.1434C106.255 20.9711 106.568 20.8813 106.887 20.886Z" fill="#2F2E41"/>
<path id="Vector_11" d="M97.9741 46.4663L105.796 41.6231L101.856 36.5598L97.9662 41.1863L85.8452 41.905C85.5264 41.6004 85.1228 41.3919 84.6836 41.3052C84.2444 41.2185 83.7886 41.2571 83.3717 41.4165C82.9549 41.5759 82.595 41.8491 82.336 42.2028C82.0769 42.5566 81.9299 42.9755 81.9129 43.4086C81.8959 43.8417 82.0096 44.2702 82.2401 44.6419C82.4707 45.0136 82.8081 45.3124 83.2112 45.5019C83.6144 45.6914 84.0658 45.7634 84.5106 45.7092C84.9553 45.6549 85.3741 45.4767 85.7159 45.1962L97.9741 46.4663Z" fill="#FFB6B6"/>
<path id="Vector_12" d="M113.056 34.863C113.51 37.5193 104.937 42.5916 104.937 42.5916C104.937 41.9681 99.8199 46.6749 99.5889 46.1578C98.9325 44.6882 98.471 41.2075 97.5537 40.6503C97.0291 40.3317 100.713 37.3386 100.713 37.3386C100.713 37.3386 102.641 35.4605 105.172 33.0915C105.874 32.4089 106.744 31.9093 107.7 31.6392C108.656 31.369 109.667 31.3371 110.639 31.5463C110.639 31.5463 112.602 32.2068 113.056 34.863Z" fill="#38B12B"/>
<path id="Vector_13" d="M129.178 47.7376L124.004 40.2794L118.852 44.1947L123.718 47.857L124.718 59.5579C124.41 59.8725 124.203 60.267 124.123 60.6934C124.042 61.1198 124.092 61.5595 124.265 61.9591C124.439 62.3587 124.729 62.7007 125.101 62.9436C125.472 63.1865 125.908 63.3197 126.356 63.327C126.805 63.3343 127.245 63.2153 127.625 62.9846C128.004 62.7539 128.306 62.4214 128.494 62.0277C128.681 61.634 128.746 61.1961 128.68 60.7674C128.615 60.3386 128.422 59.9376 128.124 59.6132L129.178 47.7376Z" fill="#FFB6B6"/>
<path id="Vector_14" d="M116.86 33.4053C119.597 32.9102 125.024 41.0896 125.024 41.0896C124.379 41.1029 129.355 45.9492 128.825 46.1834C127.319 46.849 123.73 47.3688 123.173 48.2672C122.855 48.781 119.681 45.2836 119.681 45.2836C119.681 45.2836 117.698 43.4595 115.195 41.0637C114.474 40.3991 113.939 39.569 113.64 38.6506C113.34 37.7323 113.286 36.7556 113.481 35.8114C113.481 35.8114 114.123 33.9003 116.86 33.4053Z" fill="#38B12B"/>
<path id="Vector_15" d="M130.5 109.778C130.5 109.807 130.494 109.836 130.483 109.863C130.471 109.89 130.454 109.915 130.433 109.935C130.412 109.956 130.386 109.972 130.359 109.983C130.331 109.994 130.301 110 130.271 110H76.2744C76.2136 110 76.1553 109.977 76.1123 109.935C76.0693 109.893 76.0452 109.837 76.0452 109.778C76.0452 109.72 76.0693 109.663 76.1123 109.622C76.1553 109.58 76.2136 109.557 76.2744 109.557H130.271C130.301 109.557 130.331 109.562 130.359 109.573C130.386 109.584 130.412 109.601 130.433 109.621C130.454 109.642 130.471 109.666 130.483 109.693C130.494 109.72 130.5 109.749 130.5 109.778Z" fill="#38B12B"/>
<path id="Vector_16" d="M80.4787 42.6129H14.9468C13.923 42.614 12.9414 43.0077 12.2174 43.7077C11.4935 44.4076 11.0862 45.3566 11.0851 46.3465V85.7924C11.0862 86.7822 11.4935 87.7312 12.2174 88.4312C12.9414 89.1311 13.923 89.5248 14.9468 89.5259H80.4786C81.5025 89.5248 82.4841 89.1311 83.208 88.4312C83.932 87.7312 84.3393 86.7822 84.3404 85.7924V46.3465C84.3393 45.3566 83.932 44.4076 83.2081 43.7077C82.4841 43.0077 81.5025 42.614 80.4787 42.6129Z" fill="#79B12B"/>
<path id="Vector_17" d="M80.4787 42.6129H14.9468C13.923 42.614 12.9414 43.0077 12.2174 43.7077C11.4935 44.4076 11.0862 45.3566 11.0851 46.3465V85.7924C11.0862 86.7822 11.4935 87.7312 12.2174 88.4312C12.9414 89.1311 13.923 89.5248 14.9468 89.5259H80.4786C81.5025 89.5248 82.4841 89.1311 83.208 88.4312C83.932 87.7312 84.3393 86.7822 84.3404 85.7924V46.3465C84.3393 45.3566 83.932 44.4076 83.2081 43.7077C82.4841 43.0077 81.5025 42.614 80.4787 42.6129ZM81.746 70.9474C81.7303 74.9632 80.0873 78.8132 77.1695 81.6713C74.2516 84.5294 70.2913 86.168 66.1382 86.2356C59.4888 86.3193 69.8173 86.3519 61.7976 86.3519C43.4593 86.3519 24.3375 86.1825 17.2029 86.0727C16.2642 86.054 15.3703 85.6812 14.712 85.034C14.0536 84.3868 13.6831 83.5164 13.6795 82.6086V46.3494C13.6799 46.0243 13.8134 45.7127 14.0508 45.4825C14.2883 45.2524 14.6103 45.1225 14.9465 45.1214H80.476C80.8122 45.1218 81.1345 45.2508 81.3725 45.4803C81.6105 45.7098 81.7448 46.0211 81.746 46.3461V70.9474Z" fill="#38B12B"/>
<path id="Vector_18" d="M72.4117 19.8987H22.4833C22.0415 19.8993 21.6108 20.0317 21.2497 20.2778C20.8887 20.524 20.615 20.8718 20.4661 21.2739L12.755 42.19C12.6399 42.5022 12.6041 42.8365 12.6504 43.1649C12.6967 43.4933 12.8239 43.8061 13.0213 44.0771C13.2186 44.3481 13.4804 44.5693 13.7846 44.7222C14.0887 44.875 14.4264 44.9551 14.7692 44.9556L81.7314 45.0705H81.7343C82.0887 45.0704 82.4375 44.9854 82.7495 44.823C83.0616 44.6605 83.327 44.4258 83.5221 44.1397C83.7172 43.8537 83.8358 43.5254 83.8673 43.1841C83.8988 42.8428 83.8422 42.4994 83.7026 42.1844L83.5859 42.2328L83.7026 42.1844L74.38 21.1535C74.2152 20.7809 73.9408 20.4633 73.5908 20.2402C73.2409 20.0171 72.8309 19.8984 72.4117 19.8987Z" fill="#38B12B"/>
<path id="Vector_19" d="M83.8761 42.6387C83.8759 42.9192 83.8169 43.1967 83.7027 43.4545L74.3806 59.6435C74.2146 60.0153 73.9398 60.3321 73.59 60.5548C73.2402 60.7775 72.8306 60.8965 72.4118 60.897H22.4841C22.0422 60.8966 21.6112 60.7643 21.2499 60.5184C20.8885 60.2724 20.6145 59.9246 20.4652 59.5225L12.7556 43.4489C12.6611 43.1929 12.6197 42.9213 12.6338 42.6497C12.6479 42.3782 12.7173 42.112 12.8378 41.8664C12.9584 41.6208 13.1279 41.4005 13.3366 41.2183C13.5452 41.036 13.789 40.8953 14.054 40.8042C14.2832 40.7241 14.525 40.6832 14.7687 40.6831L22.9484 40.6682L26.2869 40.6626L70.2176 40.5881L73.558 40.5825L81.7319 40.5676H81.7339C82.302 40.5677 82.8468 40.786 83.2485 41.1743C83.6502 41.5627 83.876 42.0895 83.8761 42.6387Z" fill="#38B12B"/>
<path id="Vector_20" d="M19.8596 72.2019C20.8496 72.2019 34.4454 73.0052 34.4454 73.9625C34.4454 74.9197 20.8496 75.6683 19.8596 75.6683C19.3841 75.6683 18.9281 75.4857 18.592 75.1606C18.2558 74.8356 18.0669 74.3948 18.0669 73.9351C18.0669 73.4754 18.2558 73.0346 18.592 72.7096C18.9281 72.3845 19.3841 72.2019 19.8596 72.2019Z" fill="#38B12B"/>
<path id="Vector_21" d="M62.7333 56.7548H33.7711C33.5208 56.7548 33.2807 56.8509 33.1036 57.0221C32.9266 57.1932 32.8271 57.4253 32.8271 57.6674C32.8271 57.9094 32.9266 58.1416 33.1036 58.3127C33.2807 58.4839 33.5208 58.58 33.7711 58.58H62.7333C62.9836 58.58 63.2237 58.4839 63.4007 58.3127C63.5778 58.1416 63.6772 57.9094 63.6772 57.6674C63.6772 57.4253 63.5778 57.1932 63.4007 57.0221C63.2237 56.8509 62.9836 56.7548 62.7333 56.7548Z" fill="#E4E4E4"/>
<path id="Vector_22" d="M47.9585 71.3513C47.7969 71.3515 47.6368 71.3209 47.4871 71.2613L20.9402 60.5174V26.8874C20.9405 26.59 21.0618 26.3049 21.2774 26.0947C21.493 25.8844 21.7853 25.7661 22.0902 25.7657H73.0185C73.3234 25.7661 73.6157 25.8844 73.8313 26.0947C74.0469 26.3049 74.1682 26.59 74.1685 26.8874V60.5409L74.1186 60.5617L48.4441 71.256C48.2904 71.319 48.1253 71.3515 47.9585 71.3513Z" fill="white"/>
<path id="Vector_23" d="M47.9214 60.3759C55.1462 60.3759 61.0031 54.6364 61.0031 47.5564C61.0031 40.4763 55.1462 34.7368 47.9214 34.7368C40.6965 34.7368 34.8396 40.4763 34.8396 47.5564C34.8396 54.6364 40.6965 60.3759 47.9214 60.3759Z" fill="#79B12B"/>
<path id="Vector_24" d="M46.2084 54.5865C45.9914 54.5865 45.7774 54.5354 45.5833 54.4372C45.3893 54.339 45.2205 54.1964 45.0903 54.0207L41.6623 49.3963C41.5516 49.2478 41.4709 49.0786 41.4249 48.8985C41.3789 48.7184 41.3685 48.5309 41.3943 48.3467C41.42 48.1625 41.4815 47.9852 41.575 47.8251C41.6686 47.665 41.7925 47.5251 41.9396 47.4135C42.0867 47.3019 42.2541 47.2207 42.4323 47.1747C42.6104 47.1286 42.7958 47.1186 42.9778 47.1452C43.1598 47.1717 43.3348 47.2344 43.4928 47.3295C43.6508 47.4246 43.7887 47.5503 43.8987 47.6995L46.1414 50.7246L51.9015 41.9831C52.1072 41.6711 52.4269 41.4544 52.7904 41.3809C53.1539 41.3073 53.5314 41.3829 53.8398 41.5909C54.1483 41.799 54.3624 42.1224 54.4351 42.4902C54.5078 42.858 54.4331 43.2399 54.2275 43.552L47.3715 53.9567C47.2475 54.1449 47.0807 54.3003 46.885 54.4098C46.6894 54.5192 46.4707 54.5797 46.2473 54.586C46.2343 54.5862 46.2214 54.5865 46.2084 54.5865Z" fill="white"/>
</g>
<defs>
<clipPath id="clip0_40_1219">
<rect width="130" height="110" fill="white" transform="translate(0.5)"/>
</clipPath>
</defs>
</svg>
