<svg width="119" height="94" viewBox="0 0 119 94" fill="none" xmlns="http://www.w3.org/2000/svg">
<rect x="13.4783" y="6.01172" width="81.8625" height="82.1599" rx="40.9313" fill="#79B12B"/>
<path d="M38.4571 50.05C39.5378 46.002 43.678 43.6122 47.6929 44.6919C51.7077 45.7716 54.1027 49.9188 53.0219 53.9668C51.9412 58.0147 47.801 60.4045 43.7862 59.3249C39.7713 58.2452 37.3764 54.0979 38.4571 50.05Z" stroke="white" stroke-width="5"/>
<path d="M53.9623 46.6437L76.2892 33.7981" stroke="white" stroke-width="5" stroke-linecap="round"/>
<path d="M72.3985 36.0526L74.8943 40.3912" stroke="white" stroke-width="5" stroke-linecap="round"/>
<path d="M65.0494 40.3108L67.5452 44.6494" stroke="white" stroke-width="5" stroke-linecap="round"/>
<rect opacity="0.5" x="5.49164" y="3.00586" width="41.9296" height="42.0819" rx="20.9648" fill="#79B12B"/>
<rect x="0.5" width="41.9296" height="42.0819" rx="20.9648" fill="#79B12B"/>
<path d="M19.3847 23.2773V22.5547C19.3847 22.112 19.4466 21.7214 19.5703 21.3828C19.694 21.0378 19.8926 20.7122 20.166 20.4062C20.4394 20.0938 20.8008 19.7747 21.25 19.4492C21.6536 19.1628 21.9759 18.9056 22.2168 18.6777C22.4642 18.4499 22.6432 18.2253 22.7539 18.0039C22.8711 17.776 22.9297 17.5189 22.9297 17.2324C22.9297 16.8092 22.7734 16.487 22.4609 16.2656C22.1484 16.0443 21.7122 15.9336 21.1523 15.9336C20.5924 15.9336 20.0358 16.0215 19.4824 16.1973C18.9355 16.373 18.3789 16.6042 17.8125 16.8906L16.748 14.752C17.3991 14.3874 18.1054 14.0944 18.8672 13.873C19.6289 13.6452 20.4622 13.5312 21.3672 13.5312C22.7604 13.5312 23.8379 13.8665 24.5996 14.5371C25.3678 15.2012 25.7519 16.0475 25.7519 17.0762C25.7519 17.623 25.664 18.0983 25.4883 18.502C25.319 18.8991 25.0586 19.2702 24.707 19.6152C24.362 19.9538 23.929 20.3118 23.4082 20.6895C23.0176 20.9759 22.7181 21.2168 22.5097 21.4121C22.3014 21.6074 22.1582 21.8027 22.0801 21.998C22.0084 22.1868 21.9726 22.418 21.9726 22.6914V23.2773H19.3847ZM19.0722 26.6172C19.0722 26.0052 19.2383 25.5755 19.5703 25.3281C19.9088 25.0807 20.3157 24.957 20.791 24.957C21.2532 24.957 21.6504 25.0807 21.9824 25.3281C22.3209 25.5755 22.4902 26.0052 22.4902 26.6172C22.4902 27.2031 22.3209 27.6263 21.9824 27.8867C21.6504 28.1471 21.2532 28.2773 20.791 28.2773C20.3157 28.2773 19.9088 28.1471 19.5703 27.8867C19.2383 27.6263 19.0722 27.2031 19.0722 26.6172Z" fill="white"/>
<path d="M107.728 83.4681L107.916 79.2435C109.87 78.1965 112.05 77.6435 114.266 77.6324C111.216 80.1314 111.597 84.9486 109.529 88.3091C108.877 89.3522 107.998 90.2348 106.958 90.8913C105.919 91.5478 104.745 91.9615 103.525 92.1016L100.973 93.6677C100.623 91.7111 100.7 89.7016 101.199 87.7777C101.698 85.8539 102.608 84.0614 103.865 82.5237C104.579 81.6681 105.397 80.906 106.301 80.2553C106.912 81.8706 107.728 83.4681 107.728 83.4681Z" fill="#E6E6E6"/>
<path d="M101.153 91.4936L98.8421 91.4934L97.7428 82.5599L101.153 82.5601L101.153 91.4936Z" fill="#FFB6B6"/>
<path d="M101.743 93.7386L94.2915 93.7384V93.6439C94.2916 92.873 94.5971 92.1337 95.141 91.5886C95.6849 91.0435 96.4225 90.7372 97.1917 90.7372H97.1918L98.5529 89.7023L101.092 90.7373L101.743 90.7374L101.743 93.7386Z" fill="#2F2E41"/>
<path d="M90.4172 91.4936L88.1064 91.4934L87.0071 82.5599L90.4178 82.5601L90.4172 91.4936Z" fill="#FFB6B6"/>
<path d="M91.0067 93.7386L83.5556 93.7384V93.6439C83.5557 92.873 83.8612 92.1337 84.4051 91.5886C84.949 91.0435 85.6866 90.7372 86.4558 90.7372H86.456L87.817 89.7023L90.3564 90.7373L91.0068 90.7374L91.0067 93.7386Z" fill="#2F2E41"/>
<path d="M89.4169 42.6534L104.448 43.0301C107.302 44.5841 107.346 47.9476 106.41 51.941C106.41 51.941 106.726 54.3146 106.094 54.9475C105.463 55.5805 105.147 55.5805 105.463 56.6881C105.779 57.7958 104.11 59.6049 104.313 59.808C104.516 60.0111 104.989 61.1188 104.989 61.1188L103.411 70.1383C103.411 70.1383 102.305 85.8038 101.99 86.1203C101.674 86.4368 101.358 86.1203 101.674 86.9115C101.99 87.7027 102.305 87.3862 101.99 87.7027C101.71 88.0049 101.446 88.3219 101.2 88.6521H97.3832C97.3832 88.6521 97.0954 87.0697 97.0954 86.9115C97.0954 86.7533 96.7797 85.8038 96.7797 85.6456C96.7797 85.4874 97.0588 85.2076 97.0588 85.2076C97.1552 84.886 97.2204 84.5557 97.2533 84.2215C97.2533 83.905 98.2006 71.7207 98.2006 71.7207L96.306 55.8969L91.7276 71.4042C91.7276 71.4042 91.7276 85.0126 91.4118 85.3291C91.0961 85.6456 91.0961 85.4874 91.254 86.1203C91.4118 86.7533 92.0433 86.595 91.5697 87.0697C91.0961 87.5444 90.9382 86.7533 91.0961 87.5445L91.254 88.3356L86.5176 88.4035C86.5176 88.4035 85.8861 87.0697 86.2018 86.595C86.5176 86.1203 86.4987 86.2499 86.1134 85.473C85.7282 84.6962 85.5703 84.5379 85.7282 84.3797C85.8861 84.2215 85.8861 83.3798 85.8861 83.3798L86.6755 68.2395C86.6755 68.2395 86.8333 52.2575 86.8333 51.7828C86.8453 51.5385 86.8004 51.2948 86.7022 51.0709V50.4265L87.307 48.1433L89.4169 42.6534Z" fill="#69687F"/>
<path d="M98.4461 11.3282C101.025 11.3282 103.116 9.23253 103.116 6.64742C103.116 4.06232 101.025 1.96667 98.4461 1.96667C95.8669 1.96667 93.776 4.06232 93.776 6.64742C93.776 9.23253 95.8669 11.3282 98.4461 11.3282Z" fill="#FFB6B6"/>
<path d="M96.111 14.4218C95.1049 15.0213 94.5031 16.1228 94.1576 17.2437C93.5179 19.3189 93.1329 21.4644 93.011 23.6329L92.6461 30.125L88.1266 43.9485C92.0435 47.2703 106.766 44.7035 106.766 44.7035C106.766 44.7035 107.218 44.5525 106.766 44.0995C106.314 43.6465 105.875 44.0478 106.326 43.5949C106.778 43.1419 106.467 43.6465 106.316 43.1935C106.166 42.7406 106.316 43.0426 106.467 42.8916C106.617 42.7406 105.301 41.3816 105.301 41.3816L106.506 33.4468L108.012 17.4417C106.204 15.1768 102.569 13.8417 102.569 13.8417L101.629 12.1469L96.9323 12.5235L96.111 14.4218Z" fill="#79B12B"/>
<path d="M95.4705 3.90045C95.6512 3.90187 95.831 3.92552 96.006 3.97088C96.3509 4.05398 96.7011 4.11285 97.0542 4.14705C98.1353 4.249 99.1512 4.71112 99.9396 5.45962C100.728 6.20811 101.243 7.1998 101.403 8.27629C101.675 8.03915 102.292 7.60295 102.798 8.00835C102.806 8.01479 102.811 8.0181 102.828 8.00964C103.164 7.84983 103.761 5.88268 103.779 4.15064C103.789 3.23133 103.644 2.05743 102.903 1.68568L102.863 1.66609L102.853 1.62352C102.804 1.41672 102.25 1.06373 101.288 0.788992C99.5386 0.289709 96.9316 -0.682902 95.4636 0.748465C95.3525 1.23101 94.9911 2.26367 94.6259 2.38072C94.2216 2.51027 93.8725 2.62208 93.8174 3.11916C93.7715 3.82653 93.7748 4.53626 93.8274 5.24317C93.9644 4.81061 94.2333 4.432 94.5963 4.16066C94.8544 3.98652 95.1594 3.89572 95.4705 3.90045Z" fill="#2F2E41"/>
<path d="M86.7781 29.7637L94.4067 24.867L90.5644 19.7477L86.7704 24.4253L74.949 25.152C74.6381 24.844 74.2444 24.6332 73.8161 24.5455C73.3877 24.4578 72.9432 24.4969 72.5366 24.6581C72.1301 24.8193 71.7791 25.0955 71.5264 25.4531C71.2738 25.8108 71.1305 26.2343 71.1139 26.6722C71.0973 27.1101 71.2082 27.5433 71.433 27.9192C71.6578 28.295 71.9869 28.5971 72.3801 28.7887C72.7733 28.9803 73.2136 29.0531 73.6473 28.9982C74.0811 28.9433 74.4896 28.7631 74.8229 28.4796L86.7781 29.7637Z" fill="#FFB6B6"/>
<path d="M101.487 18.0321C101.93 20.7177 93.5688 25.8461 93.5688 25.8461C93.5687 25.2158 88.5783 29.9746 88.353 29.4518C87.7128 27.9659 87.2627 24.4467 86.3681 23.8834C85.8565 23.5612 89.4493 20.5351 89.4493 20.5351C89.4493 20.5351 91.3299 18.6362 93.7978 16.241C94.483 15.5509 95.3313 15.0457 96.2636 14.7725C97.196 14.4994 98.1822 14.4671 99.1303 14.6787C99.1303 14.6787 101.044 15.3464 101.487 18.0321Z" fill="#79B12B"/>
<path d="M117.211 31.0491L112.165 23.5084L107.14 27.467L111.886 31.1698L112.861 43.0001C112.561 43.3182 112.359 43.7171 112.28 44.1482C112.202 44.5792 112.25 45.0239 112.42 45.4279C112.589 45.8318 112.872 46.1777 113.234 46.4233C113.596 46.6689 114.022 46.8035 114.459 46.8109C114.896 46.8182 115.326 46.698 115.696 46.4647C116.066 46.2315 116.361 45.8953 116.543 45.4973C116.726 45.0992 116.789 44.6564 116.725 44.223C116.662 43.7895 116.473 43.384 116.183 43.056L117.211 31.0491Z" fill="#FFB6B6"/>
<path d="M105.197 16.5581C107.867 16.0576 113.16 24.3274 113.16 24.3274C112.531 24.3408 117.383 29.2407 116.867 29.4775C115.398 30.1505 111.897 30.676 111.354 31.5844C111.044 32.1038 107.949 28.5678 107.949 28.5678C107.949 28.5678 106.015 26.7235 103.574 24.3012C102.871 23.6293 102.349 22.79 102.057 21.8615C101.764 20.933 101.711 19.9454 101.902 18.9909C101.902 18.9909 102.528 17.0586 105.197 16.5581Z" fill="#79B12B"/>
<path d="M118.5 93.7759C118.5 93.8053 118.494 93.8345 118.483 93.8617C118.472 93.889 118.456 93.9137 118.435 93.9345C118.414 93.9553 118.389 93.9718 118.362 93.9831C118.335 93.9943 118.306 94 118.277 93.9999H65.6147C65.5554 93.9999 65.4985 93.9763 65.4566 93.9343C65.4147 93.8923 65.3911 93.8353 65.3911 93.7759C65.3911 93.7164 65.4147 93.6594 65.4566 93.6174C65.4985 93.5754 65.5554 93.5518 65.6147 93.5518H118.277C118.306 93.5517 118.335 93.5574 118.362 93.5686C118.389 93.5799 118.414 93.5964 118.435 93.6172C118.456 93.638 118.472 93.6628 118.483 93.69C118.494 93.7172 118.5 93.7464 118.5 93.7759Z" fill="#79B12B"/>
</svg>
