<svg width="10" height="10" viewBox="0 0 10 10" fill="none" xmlns="http://www.w3.org/2000/svg">
<g id="subway:call" clip-path="url(#clip0_40_1638)">
<path id="Vector" d="M8.33399 8.86329L7.58985 7.31837C7.42969 6.98829 7.22266 6.74806 6.86524 6.89454L6.16016 7.15626C5.59571 7.41798 5.31446 7.15626 5.03126 6.76173L3.76172 3.87306C3.60157 3.54298 3.68555 3.23243 4.04297 3.08595L5.0293 2.69141C5.38672 2.54298 5.33008 2.23438 5.16993 1.90431L4.32422 0.330086C4.16407 8.22591e-06 3.83594 -0.0800699 3.47852 0.0664145C2.76368 0.361336 2.17188 0.824227 1.78711 1.50977C1.31836 2.34766 1.55274 3.51368 1.64649 4.00391C1.74024 4.49415 2.06836 5.35352 2.49219 6.23438C2.91602 7.1172 3.28711 7.81056 3.6211 8.20313C3.95313 8.59571 4.75001 9.66993 5.73633 9.91016C6.54493 10.1055 7.41797 9.94142 8.13282 9.64649C8.49219 9.50587 8.49219 9.19532 8.33399 8.86329Z" fill="black"/>
</g>
<defs>
<clipPath id="clip0_40_1638">
<rect width="10" height="10" fill="white"/>
</clipPath>
</defs>
</svg>
