<svg width="8" height="10" viewBox="0 0 8 10" fill="none" xmlns="http://www.w3.org/2000/svg">
<path id="fa6-solid:location-dot" d="M4.49375 9.7753C5.5625 8.51814 8 5.47119 8 3.75973C8 1.68405 6.20833 0 4 0C1.79167 0 0 1.68405 0 3.75973C0 5.47119 2.4375 8.51814 3.50625 9.7753C3.7625 10.0749 4.2375 10.0749 4.49375 9.7753ZM4 2.50649C4.35362 2.50649 4.69276 2.63852 4.94281 2.87355C5.19286 3.10858 5.33333 3.42735 5.33333 3.75973C5.33333 4.09211 5.19286 4.41088 4.94281 4.64591C4.69276 4.88094 4.35362 5.01297 4 5.01297C3.64638 5.01297 3.30724 4.88094 3.05719 4.64591C2.80714 4.41088 2.66667 4.09211 2.66667 3.75973C2.66667 3.42735 2.80714 3.10858 3.05719 2.87355C3.30724 2.63852 3.64638 2.50649 4 2.50649Z" fill="black"/>
</svg>
