<svg width="22" height="22" viewBox="0 0 22 22" fill="none" xmlns="http://www.w3.org/2000/svg">
<g id="setting">
<path id="Vector" d="M20.2558 6.13374L19.7618 5.27779C19.3888 4.62982 19.2018 4.30583 18.8838 4.17684C18.5667 4.04685 18.2077 4.14984 17.4887 4.35283L16.2687 4.69682C15.8097 4.80281 15.3286 4.74281 14.9106 4.52682L14.5736 4.33283C14.2146 4.10276 13.9385 3.76396 13.7856 3.36588L13.4516 2.36793C13.2316 1.70796 13.1216 1.37798 12.8606 1.18999C12.5996 1 12.2515 1 11.5575 1H10.4425C9.74846 1 9.40145 1 9.13944 1.18999C8.87843 1.37798 8.76943 1.70796 8.54942 2.36793L8.21541 3.36588C8.06228 3.7641 7.78581 4.10292 7.42638 4.33283L7.08937 4.52782C6.67136 4.74281 6.18934 4.80281 5.73133 4.69782L4.51129 4.35283C3.79227 4.14984 3.43326 4.04785 3.11625 4.17684C2.79824 4.30583 2.61123 4.62982 2.23822 5.27679L1.7452 6.13374C1.39519 6.74171 1.22018 7.0447 1.25419 7.36768C1.28819 7.69167 1.52219 7.95165 1.99021 8.47263L3.02124 9.62557C3.27325 9.94455 3.45226 10.5005 3.45226 11.0005C3.45226 11.5005 3.27325 12.0564 3.02224 12.3754L1.99021 13.5274C1.52219 14.0483 1.28819 14.3093 1.25419 14.6323C1.22018 14.9553 1.39419 15.2593 1.7442 15.8663L2.23822 16.7232C2.61123 17.3702 2.79824 17.6942 3.11625 17.8232C3.43426 17.9522 3.79227 17.8512 4.51129 17.6472L5.73133 17.3032C6.19023 17.1982 6.67148 17.2583 7.09037 17.4732L7.42638 17.6672C7.7864 17.8972 8.06241 18.2371 8.21441 18.6351L8.54842 19.6321C8.76843 20.292 8.87843 20.622 9.13944 20.812C9.40145 21 9.74846 21 10.4425 21H11.5575C12.2515 21 12.5996 21 12.8606 20.811C13.1216 20.622 13.2316 20.292 13.4506 19.6321L13.7856 18.6351C13.9376 18.2361 14.2136 17.8972 14.5736 17.6672L14.9096 17.4732C15.3296 17.2582 15.8097 17.1972 16.2697 17.3032L17.4897 17.6472C18.2077 17.8512 18.5667 17.9532 18.8838 17.8242C19.2018 17.6942 19.3888 17.3702 19.7618 16.7232L20.2548 15.8663C20.6048 15.2593 20.7798 14.9563 20.7458 14.6323C20.7118 14.3083 20.4778 14.0483 20.0098 13.5274L18.9788 12.3754C18.7267 12.0554 18.5477 11.5005 18.5477 11.0005C18.5477 10.5005 18.7267 9.94455 18.9778 9.62557L20.0098 8.47263C20.4778 7.95265 20.7118 7.69167 20.7458 7.36768C20.7798 7.0437 20.6058 6.74171 20.2558 6.13374Z" stroke="#A49EB5" stroke-width="1.5" stroke-linecap="round" stroke-linejoin="round"/>
<path id="Vector_2" d="M14.4577 10.9925C14.4577 11.9207 14.089 12.8109 13.4326 13.4673C12.7762 14.1236 11.8859 14.4923 10.9576 14.4923C10.0293 14.4923 9.13906 14.1236 8.48266 13.4673C7.82626 12.8109 7.4575 11.9207 7.4575 10.9925C7.4575 10.0643 7.82626 9.1741 8.48266 8.51775C9.13906 7.86141 10.0293 7.49268 10.9576 7.49268C11.8859 7.49268 12.7762 7.86141 13.4326 8.51775C14.089 9.1741 14.4577 10.0643 14.4577 10.9925Z" stroke="#A49EB5" stroke-width="1.5" stroke-linecap="round" stroke-linejoin="round"/>
</g>
</svg>
