<svg width="19" height="18" viewBox="0 0 19 18" fill="none" xmlns="http://www.w3.org/2000/svg">
<path id="Icon" d="M5.5 4.10001V4.85001C5.76675 4.85001 6.01343 4.70833 6.14783 4.47792L5.5 4.10001ZM6.9 1.70001V0.950012C6.63325 0.950012 6.38657 1.0917 6.25217 1.32211L6.9 1.70001ZM12.1 1.70001L12.7478 1.32211C12.6134 1.0917 12.3668 0.950012 12.1 0.950012V1.70001ZM13.5 4.10001L12.8522 4.47792C12.9866 4.70833 13.2332 4.85001 13.5 4.85001V4.10001ZM2.25 14.3V6.10001H0.75V14.3H2.25ZM3.5 4.85001H5.5V3.35001H3.5V4.85001ZM6.14783 4.47792L7.54783 2.07792L6.25217 1.32211L4.85217 3.72211L6.14783 4.47792ZM6.9 2.45001H12.1V0.950012H6.9V2.45001ZM11.4522 2.07792L12.8522 4.47792L14.1478 3.72211L12.7478 1.32211L11.4522 2.07792ZM13.5 4.85001H15.5V3.35001H13.5V4.85001ZM16.75 6.10001V14.3H18.25V6.10001H16.75ZM16.75 14.3C16.75 14.9904 16.1904 15.55 15.5 15.55V17.05C17.0188 17.05 18.25 15.8188 18.25 14.3H16.75ZM15.5 4.85001C16.1904 4.85001 16.75 5.40966 16.75 6.10001H18.25C18.25 4.58123 17.0188 3.35001 15.5 3.35001V4.85001ZM2.25 6.10001C2.25 5.40966 2.80964 4.85001 3.5 4.85001V3.35001C1.98122 3.35001 0.75 4.58123 0.75 6.10001H2.25ZM3.5 15.55C2.80964 15.55 2.25 14.9904 2.25 14.3H0.75C0.75 15.8188 1.98122 17.05 3.5 17.05V15.55ZM11.75 9.70001C11.75 10.9427 10.7426 11.95 9.5 11.95V13.45C11.5711 13.45 13.25 11.7711 13.25 9.70001H11.75ZM9.5 11.95C8.25736 11.95 7.25 10.9427 7.25 9.70001H5.75C5.75 11.7711 7.42893 13.45 9.5 13.45V11.95ZM7.25 9.70001C7.25 8.45737 8.25736 7.45001 9.5 7.45001V5.95001C7.42893 5.95001 5.75 7.62895 5.75 9.70001H7.25ZM9.5 7.45001C10.7426 7.45001 11.75 8.45737 11.75 9.70001H13.25C13.25 7.62895 11.5711 5.95001 9.5 5.95001V7.45001ZM15.5 15.55H3.5V17.05H15.5V15.55Z" fill="white"/>
</svg>
