<svg width="20" height="12" viewBox="0 0 20 12" fill="none" xmlns="http://www.w3.org/2000/svg">
<path id="Arrow 1" d="M19.1046 6.75C19.5188 6.75 19.8546 6.41421 19.8546 6C19.8546 5.58579 19.5188 5.25 19.1046 5.25V6.75ZM0.365084 5.46967C0.0721912 5.76256 0.0721912 6.23744 0.365084 6.53033L5.13805 11.3033C5.43095 11.5962 5.90582 11.5962 6.19872 11.3033C6.49161 11.0104 6.49161 10.5355 6.19872 10.2426L1.95607 6L6.19872 1.75736C6.49161 1.46447 6.49161 0.989593 6.19872 0.696699C5.90582 0.403806 5.43095 0.403806 5.13805 0.696699L0.365084 5.46967ZM19.1046 5.25L0.895414 5.25V6.75L19.1046 6.75V5.25Z" fill="#79B12B"/>
</svg>
