<svg width="30" height="33" viewBox="0 0 30 33" fill="none" xmlns="http://www.w3.org/2000/svg">
<path id="Home" d="M25.75 20.9992V30.3636C25.75 31.054 25.1904 31.6136 24.5 31.6136H18.25V24.172C18.25 23.2055 17.4665 22.422 16.5 22.422H13.5C12.5335 22.422 11.75 23.2055 11.75 24.172V31.6136H5.5C4.80964 31.6136 4.25 31.054 4.25 30.3636V20.9992C4.25 20.5379 3.876 20.1639 3.41463 20.1639C1.943 20.1639 0.75 18.9709 0.75 17.4992V17.3761C0.75 16.6787 1.01145 16.0065 1.48275 15.4924L14.0865 1.74288C14.5801 1.20438 15.4283 1.20211 15.9248 1.73795L28.4757 15.2835C28.9735 15.8207 29.25 16.526 29.25 17.2583V17.4992C29.25 18.9709 28.057 20.1639 26.5854 20.1639C26.124 20.1639 25.75 20.5379 25.75 20.9992Z" stroke="#79B12B" stroke-width="1.5"/>
</svg>
